<svg xmlns="http://www.w3.org/2000/svg" viewBox="0 0 318 88"><path fill="#648F00" d="M318 44c0 24.3-19.7 44-44 44H44C19.7 88 0 68.3 0 44S19.7 0 44 0h230c24.3 0 44 19.7 44 44z"/><g fill="#FFF"><path d="M153.5 53.6v-20h3.5v16.9h8.8v3.1h-12.3zM168.5 35.4c0-1.1.9-2 2-2s1.9.9 1.9 2-.9 1.9-1.9 1.9-2-.9-2-1.9zm.3 18.2V39.1h3.1v14.5h-3.1zM174.8 51.7l1.4-2.2c1 1 3 2 4.9 2 1.9 0 2.9-.8 2.9-1.9 0-2.8-8.8-.8-8.8-6.4 0-2.4 2-4.4 5.7-4.4 2.5 0 4.3.9 5.6 2l-1.3 2.2c-.9-1-2.5-1.7-4.3-1.7-1.6 0-2.7.8-2.7 1.8 0 2.5 8.8.6 8.8 6.4 0 2.6-2.1 4.5-6 4.5-2.4-.1-4.7-.9-6.2-2.3zM190.9 50.2v-8.4h-2.4v-2.7h2.4v-4h3.2v4h2.9v2.7h-3v7.6c0 1 .5 1.7 1.4 1.7.6 0 1.1-.3 1.4-.5l.8 2.4c-.6.5-1.5.9-2.9.9-2.6 0-3.8-1.3-3.8-3.7zM198.9 46.3c0-4.2 3.1-7.6 7.3-7.6 4.4 0 7.1 3.3 7.1 7.9v.8h-11.2c.2 2.2 1.9 4 4.6 4 1.4 0 3.1-.6 4.1-1.6l1.4 2.1c-1.5 1.4-3.6 2.1-5.9 2.1-4.2-.1-7.4-3.1-7.4-7.7zm7.3-5c-2.7 0-3.9 2.1-4 3.8h8.2c-.1-1.7-1.3-3.8-4.2-3.8zM226.3 53.6v-9.1c0-2.3-1.2-3-2.9-3-1.6 0-3 1-3.7 1.9v10.1h-3.2V39.1h3.2v2c1-1.1 2.8-2.3 5.1-2.3 3.1 0 4.7 1.7 4.7 4.7v10.2h-3.2z"/></g><path fill="#FFF" d="M109.5 21.7c-12.2 0-22 9.8-22 22s9.8 22 22 22 22-9.8 22-22c0-12.1-9.8-22-22-22zm10.1 31.8c-.4.6-1.2.9-1.9.5-5.2-3.2-11.7-3.9-19.3-2.1-.7.2-1.5-.3-1.6-1-.2-.7.3-1.5 1-1.6 8.4-1.9 15.6-1.1 21.4 2.5.6.2.8 1 .4 1.7zm2.7-6c-.5.8-1.6 1.1-2.4.6-5.9-3.7-14.9-4.8-21.9-2.6-.9.3-1.9-.2-2.1-1.1-.3-.9.2-1.9 1.1-2.1 8-2.4 17.9-1.3 24.7 2.9.8.4 1.1 1.5.6 2.3zm.2-6.3c-7.1-4.2-18.8-4.6-25.6-2.5-1.1.3-2.2-.3-2.6-1.4-.3-1.1.3-2.2 1.4-2.6 7.8-2.4 20.7-1.9 28.9 2.9 1 .6 1.3 1.8.7 2.8-.5 1.1-1.8 1.4-2.8.8z"/></svg>